<svg xml:space="preserve" viewBox="0 0 16 16" width="16" height="16" xmlns="http://www.w3.org/2000/svg">
<path d="M15,1l-14,-0c-0.557,-0 -1,0.454 -1,1.011l0,11.989c0,0.557 0.443,1.011 1,1.011l14,-0c0.557,-0 1,-0.454 1,-1.011l0,-11.989c0,-0.557 -0.443,-1.011 -1,-1.011Zm-3.613,7.638c-0.109,-0.128 -0.277,-0.227 -0.467,-0.227c-0.186,0 -0.317,0.088 -0.466,0.208l-0.682,0.576c-0.142,0.102 -0.255,0.172 -0.419,0.172c-0.157,-0 -0.299,-0.059 -0.401,-0.15c-0.037,-0.033 -0.103,-0.095 -0.157,-0.149l-1.962,-2.122c-0.146,-0.168 -0.364,-0.274 -0.609,-0.274c-0.244,0 -0.47,0.121 -0.612,0.285l-4.612,5.563l0,-10.093c0.036,-0.248 0.23,-0.427 0.478,-0.427l13.041,0c0.251,0 0.455,0.186 0.47,0.438l0.011,10.09l-3.613,-3.89Z M11.5,7c0.828,0 1.5,-0.672 1.5,-1.5c0,-0.828 -0.672,-1.5 -1.5,-1.5c-0.828,0 -1.5,0.672 -1.5,1.5c0,0.828 0.672,1.5 1.5,1.5Z"/>
</svg>